# xmcd
#
# Track frame offsets:
#	151
#	9719
#	25383
#	38951
#	56772
#	72213
#	83879
#	100588
#	113487
#	129591
#	140671
#	153241
#
# Disc length: 2256 seconds
#
# Revision: 1
# Processed by: cddbd v1.5.2PL0 Copyright (c) Steve Scherf et al.
# Submitted via: audiograbber 1.83.01
#
DISCID=9b08ce0c
DTITLE=Laura Lynn Cash  - All My Souvenirs
DYEAR=2003
DGENRE=Country
TTITLE0=Silver Bells
TTITLE1=Seasons Of My Heart
TTITLE2=Pick Me Up On Your Way Down
TTITLE3=Among My Souvenirs
TTITLE4=I Still Miss Someone
TTITLE5=Lord, Hold My Hand
TTITLE6=Touch My Heart
TTITLE7=This Heart Of Mine
TTITLE8=It's Sweet To Be Remembered
TTITLE9=Beaumont Rag
TTITLE10=Cold, Cold Heart
TTITLE11=Maiden's Prayer
EXTD=
EXTT0=
EXTT1=
EXTT2=
EXTT3=
EXTT4=
EXTT5=
EXTT6=
EXTT7=
EXTT8=
EXTT9=
EXTT10=
EXTT11=
PLAYORDER=
